<svg xmlns="http://www.w3.org/2000/svg" viewBox="0 0 64 64" fill="none" stroke-linecap="round" stroke-linejoin="round">
  <!-- flask -->
  <path d="M25 8h14M28 8v14L13 49a6 6 0 0 0 5.3 9h27.4A6 6 0 0 0 51 49L36 22V8" fill="#e9f8f5" stroke="#0b4a52" stroke-width="3.2"/>
  <!-- liquid -->
  <path d="M19.5 41h25l6.4 11.5A3.6 3.6 0 0 1 47.700 58H16.300a3.600 3.600 0 0 1-3.200-5.500z" fill="#5cc2b8" stroke="#0b4a52" stroke-width="3.2"/>
  <!-- bubbles -->
  <circle cx="27" cy="49" r="2.200" fill="#fff"/><circle cx="37" cy="52" r="1.600" fill="#fff"/><circle cx="33" cy="45.500" r="1.300" fill="#fff"/>
  <!-- plus badge -->
  <circle cx="49" cy="16" r="10.500" fill="#f2994a" stroke="#0b4a52" stroke-width="3"/>
  <path d="M49 10.500v11M43.500 16h11" stroke="#fff" stroke-width="3.400"/>
</svg>
